<svg id="Layer_1" data-name="Layer 1" xmlns="http://www.w3.org/2000/svg" xmlns:xlink="http://www.w3.org/1999/xlink" viewBox="0 0 851.42 1032.98"><defs><style>.cls-1,.cls-4,.cls-6{fill:#197562;}.cls-1,.cls-3,.cls-5,.cls-6{stroke:#197562;}.cls-1{stroke-linecap:round;stroke-linejoin:round;stroke-width:3.45px;stroke-dasharray:16.57 1.38;}.cls-2{fill:#0e1026;stroke:url(#_1);}.cls-2,.cls-3,.cls-6,.cls-8{stroke-miterlimit:10;}.cls-2,.cls-6{stroke-width:0.69px;}.cls-3,.cls-5{fill:#538878;stroke-width:6.9px;}.cls-7{fill:#212134;}.cls-8{fill:none;stroke:#212134;stroke-width:3.1px;}</style><linearGradient id="_1" x1="327.64" y1="581.56" x2="327.64" y2="581.56" gradientUnits="userSpaceOnUse"><stop offset="0" stop-color="#220c43"/><stop offset="1"/></linearGradient></defs><title>Oak-Creek-Symbol</title><polyline class="cls-1" points="620.02 330.73 620.02 523.29 698.91 633.2"/><path class="cls-2" d="M327.64,581.56" transform="translate(-112.75 -21.02)"/><path class="cls-3" d="M958.73,605.85a410.45,410.45,0,0,1-402.57-2L732.77,351.75Z" transform="translate(-112.75 -21.02)"/><path class="cls-4" d="M732.77,351.75V544.31l78.89,109.91a411,411,0,0,1-255.5-50.35Z" transform="translate(-112.75 -21.02)"/><path class="cls-5" d="M644.64,413.37,523.58,588.16A412.58,412.58,0,0,0,347.16,537C235.72,530.79,153.25,571.86,121,590.15L406.15,28.06Z" transform="translate(-112.75 -21.02)"/><path class="cls-4" d="M523.58,588.16,406.15,410.31V28.06L121,590.15a412.81,412.81,0,0,1,189.26-53.5C413.64,533.19,490.54,569.88,523.58,588.16Z" transform="translate(-112.75 -21.02)"/><polyline class="cls-6" points="293.4 7.04 293.4 284.42 410.83 569.13"/><polyline class="cls-6" points="293.4 389.29 293.4 284.42 408.64 563.83"/><path class="cls-7" d="M121,643.91,542.37,1054,958.73,659.62c-35.07,18.9-104.62,50.23-197.12,51.73-118.2,1.93-204.1-46-238-67.44-31.73-18.21-106.09-55.2-207.2-53.72A405.84,405.84,0,0,0,121,643.91Z" transform="translate(-112.75 -21.02)"/><path class="cls-8" d="M715,875.66" transform="translate(-112.75 -21.02)"/></svg>